<svg width="42" height="43" viewBox="0 0 42 43" fill="none" xmlns="http://www.w3.org/2000/svg">
<path d="M29.249 20.6252L21 28.9497L12.7509 20.6239C12.2338 20.0985 11.3938 20.0985 10.8767 20.6239C10.3595 21.1493 10.3595 21.9999 10.8767 22.5239L20.0629 31.7945C20.5603 32.2984 21.4384 32.3011 21.9384 31.7945L31.1246 22.5226C31.6417 21.9985 31.6417 21.1466 31.1246 20.6225C30.6062 20.0998 29.7662 20.0998 29.249 20.6252Z" fill="#121313"/>
<path d="M20.0629 22.3896C20.5603 22.8935 21.4384 22.8962 21.9384 22.3896L31.1246 13.119C31.6417 12.5936 31.6417 11.743 31.1246 11.219C30.6075 10.6936 29.7675 10.6936 29.2504 11.219L21 19.5435L12.7509 11.219C12.2338 10.6936 11.3938 10.6936 10.8767 11.219C10.3595 11.7444 10.3595 12.595 10.8767 13.119L20.0629 22.3896Z" fill="#121313"/>
</svg>
