<svg width="61" height="40" viewBox="0 0 61 40" fill="none" xmlns="http://www.w3.org/2000/svg">
<path d="M60.9331 39.1696C60.9659 39.0685 60.9882 38.9617 60.9882 38.8494V1.79098C60.9882 1.67798 60.9659 1.57056 60.9324 1.46872C60.9276 1.45476 60.9248 1.44081 60.9192 1.42686C60.8745 1.30758 60.809 1.20016 60.7267 1.10599C60.7211 1.09971 60.7204 1.09204 60.7148 1.08576C60.7113 1.08228 60.7071 1.08088 60.7037 1.07739C60.6158 0.983921 60.5118 0.908587 60.3953 0.852086C60.3863 0.8479 60.3793 0.84232 60.3702 0.838134C60.26 0.788609 60.14 0.760707 60.0138 0.752337C60.0012 0.751639 59.9894 0.748848 59.9768 0.748848C59.965 0.748151 59.9545 0.745361 59.9426 0.745361H1.9046C1.89274 0.745361 1.88158 0.748151 1.86972 0.748848C1.85856 0.749546 1.8474 0.751639 1.83624 0.752337C1.70859 0.760707 1.58652 0.789307 1.47492 0.83953C1.46794 0.84232 1.46236 0.847203 1.45539 0.849993C1.33681 0.906494 1.23148 0.983224 1.1429 1.07809C1.13941 1.08158 1.13522 1.08228 1.13173 1.08576C1.12615 1.09134 1.12546 1.09902 1.11988 1.10529C1.03757 1.19946 0.971302 1.30758 0.926661 1.42686C0.92108 1.44081 0.91829 1.45476 0.913407 1.46941C0.879926 1.57125 0.857605 1.67868 0.857605 1.79168V38.8508C0.857605 38.9652 0.880623 39.074 0.914802 39.1773C0.919685 39.1912 0.922475 39.2045 0.927358 39.2184C0.972697 39.3384 1.03966 39.4465 1.12267 39.5407C1.12755 39.5463 1.12894 39.5533 1.13383 39.5588C1.13801 39.5637 1.14359 39.5665 1.14848 39.5714C1.18265 39.607 1.22032 39.6384 1.25938 39.6691C1.27682 39.6823 1.29217 39.6983 1.3103 39.7109C1.35634 39.743 1.40586 39.7688 1.45678 39.7925C1.46934 39.7981 1.4805 39.8072 1.49306 39.812C1.61931 39.8658 1.75812 39.8965 1.9039 39.8965H59.9412C60.087 39.8965 60.2258 39.8665 60.3521 39.812C60.3716 39.8037 60.3898 39.7911 60.4086 39.7814C60.4518 39.7597 60.4951 39.7374 60.5348 39.7102C60.5558 39.6956 60.5746 39.6767 60.5948 39.6607C60.6304 39.6321 60.6653 39.6035 60.696 39.5707C60.7016 39.5651 60.7078 39.5609 60.7134 39.5554C60.719 39.5491 60.7204 39.5407 60.726 39.5344C60.8076 39.441 60.8732 39.3335 60.9178 39.215C60.9248 39.1996 60.9283 39.185 60.9331 39.1696ZM2.95089 4.16403L20.5615 20.2501L2.95089 36.4645V4.16403ZM39.0453 19.4619C38.9728 19.5093 38.896 19.5491 38.8354 19.616C38.8123 19.6412 38.8047 19.6739 38.7844 19.7004L30.9233 26.881L4.60125 2.8373H57.2453L39.0453 19.4619ZM22.1128 21.6668L30.2174 29.0699C30.4176 29.2526 30.6701 29.344 30.9233 29.344C31.1765 29.344 31.429 29.2526 31.6285 29.0699L39.6326 21.7589L57.2404 37.8038H4.58591L22.1128 21.6668ZM41.1846 20.3415L58.8957 4.16403V36.4813L41.1846 20.3415Z" fill="black"/>
</svg>
